# xmcd
#
# Track frame offsets:
#	150
#	18785
#	38440
#	53492
#	62962
#	82367
#	94810
#	110410
#
# Disc length: 1745 seconds
#
# Revision: 2
# Processed by: cddbd v1.5.2PL0 Copyright (c) Steve Scherf et al.
# Submitted via: EasyCDDAExtractor 15.2.5.1
#
DISCID=5d06cf08
DTITLE=Various Artist - アニメージュ・シングルス
DYEAR=1991
DGENRE=Anime
TTITLE0=風の谷のナウシカ
TTITLE1=風の妖精
TTITLE2=君をのせて
TTITLE3=合唱 君をのせて
TTITLE4=となりのトトロ
TTITLE5=さんぽ
TTITLE6=めぐる季節
TTITLE7=魔法のぬくもり
EXTD=
EXTT0=
EXTT1=
EXTT2=
EXTT3=
EXTT4=
EXTT5=
EXTT6=
EXTT7=
PLAYORDER=
